<svg width="96" height="58" viewBox="0 0 96 58" fill="none" xmlns="http://www.w3.org/2000/svg">
<path d="M27.0556 21.0586C27.0556 22.2539 27.1845 23.2188 27.4072 23.9297C27.6611 24.6367 27.9814 25.4102 28.4306 26.25C28.5908 26.5078 28.6533 26.7656 28.6533 26.9922C28.6533 27.3125 28.4619 27.6367 28.0478 27.9609L26.0361 29.3125C25.747 29.5078 25.4619 29.6055 25.204 29.6055C24.8837 29.6055 24.5673 29.4414 24.247 29.1523C23.7978 28.668 23.415 28.1523 23.0986 27.6367C22.7783 27.0898 22.4579 26.4766 22.1064 25.7344C19.6181 28.6992 16.4853 30.1836 12.7197 30.1836C10.0361 30.1836 7.89545 29.4102 6.33295 27.8633C4.77045 26.3125 3.96967 24.25 3.96967 21.6719C3.96967 18.9297 4.9306 16.7031 6.87592 15.0273C8.82513 13.3516 11.4111 12.5117 14.7001 12.5117C15.7861 12.5117 16.9033 12.6094 18.0829 12.7695C19.2626 12.9336 20.4775 13.1914 21.7548 13.4805V11.125C21.7548 8.67578 21.2431 6.96484 20.2548 5.96484C19.2314 4.96484 17.5087 4.48047 15.0517 4.48047C13.9345 4.48047 12.7861 4.60938 11.6025 4.90234C10.4228 5.19141 9.27435 5.54688 8.15326 5.99609C7.64545 6.22266 7.26263 6.35156 7.03607 6.41797C6.81342 6.48047 6.65326 6.51562 6.52826 6.51562C6.07904 6.51562 5.85638 6.19141 5.85638 5.51562V3.93359C5.85638 3.41797 5.92279 3.03125 6.07904 2.80469C6.2392 2.57812 6.52826 2.35547 6.97357 2.12891C8.09467 1.54688 9.43451 1.0625 10.997 0.675781C12.5634 0.257812 14.2236 0.0625 15.9775 0.0625C19.7783 0.0625 22.5556 0.933594 24.3447 2.67578C26.1025 4.41797 26.9931 7.0625 26.9931 10.6094V21.0547H27.0556V21.0586ZM14.0908 25.957C15.1454 25.957 16.2314 25.7656 17.3798 25.3789C18.5283 24.9922 19.5517 24.2812 20.4111 23.3125C20.9228 22.7031 21.3056 22.0234 21.497 21.25C21.6923 20.4766 21.8173 19.5391 21.8173 18.4453V17.0898C20.8915 16.8633 19.9033 16.6719 18.8798 16.543C17.8603 16.4141 16.8681 16.3477 15.8798 16.3477C13.7392 16.3477 12.1767 16.7695 11.122 17.6367C10.0673 18.5078 9.5556 19.7344 9.5556 21.3477C9.5556 22.8633 9.94232 23.9883 10.7392 24.7656C11.5048 25.5703 12.622 25.957 14.0908 25.957ZM39.7314 29.4414C39.1572 29.4414 38.7744 29.3477 38.5165 29.1211C38.2626 28.9258 38.04 28.4766 37.8486 27.8633L30.3447 2.9375C30.1494 2.29297 30.0556 1.87109 30.0556 1.64453C30.0556 1.12891 30.3095 0.839844 30.8212 0.839844H33.9501C34.5556 0.839844 34.9736 0.9375 35.1962 1.16016C35.454 1.35547 35.6415 1.80469 35.8369 2.42188L41.2001 23.7695L46.1806 2.42188C46.3408 1.77734 46.5322 1.35547 46.7861 1.16016C47.04 0.96875 47.4853 0.839844 48.0634 0.839844H50.6181C51.2236 0.839844 51.6376 0.9375 51.8954 1.16016C52.1494 1.35547 52.372 1.80469 52.5009 2.42188L57.5439 24.0273L63.0673 2.42188C63.2626 1.77734 63.4853 1.35547 63.7079 1.16016C63.9619 0.96875 64.3759 0.839844 64.954 0.839844H67.9228C68.4345 0.839844 68.7197 1.09766 68.7197 1.64453C68.7197 1.80859 68.6884 1.96875 68.6572 2.16016C68.6259 2.35547 68.5595 2.61328 68.4345 2.96875L60.7392 27.8945C60.5478 28.5391 60.3212 28.957 60.0673 29.1523C59.8134 29.3477 59.3994 29.4727 58.8564 29.4727H56.1103C55.5048 29.4727 55.0869 29.3789 54.829 29.1523C54.5751 28.9258 54.3525 28.5078 54.2236 27.8633L49.2783 7.0625L44.3603 27.8281C44.2001 28.4727 44.0087 28.8945 43.7548 29.1211C43.497 29.3477 43.0517 29.4414 42.4775 29.4414H39.7314ZM80.7587 30.3125C79.0986 30.3125 77.4384 30.1172 75.8447 29.7305C74.247 29.3477 73.0009 28.9258 72.1728 28.4414C71.6611 28.1523 71.3095 27.8281 71.1806 27.5391C71.0517 27.25 70.9892 26.9297 70.9892 26.6367V24.9922C70.9892 24.3164 71.2431 23.9922 71.7236 23.9922C71.915 23.9922 72.1064 24.0273 72.2978 24.0898C72.4892 24.1523 72.7744 24.2852 73.0947 24.4102C74.1806 24.8945 75.3603 25.2812 76.6064 25.5391C77.8837 25.7969 79.1298 25.9258 80.4072 25.9258C82.4189 25.9258 83.9814 25.5703 85.0673 24.8633C86.1533 24.1523 86.7275 23.1211 86.7275 21.7969C86.7275 20.8945 86.4423 20.1523 85.8681 19.5391C85.2939 18.9297 84.2079 18.3789 82.6415 17.8633L78.0126 16.4102C75.6845 15.6719 73.9579 14.5742 72.9033 13.1211C71.8525 11.7031 71.3095 10.125 71.3095 8.44531C71.3095 7.09375 71.5986 5.89844 72.1728 4.86719C72.7431 3.83594 73.5126 2.93359 74.4697 2.22266C75.4267 1.48047 76.5126 0.933594 77.79 0.546875C79.0673 0.160156 80.4072 0 81.8134 0C82.5165 0 83.247 0.0312503 83.954 0.128906C84.6884 0.222656 85.3564 0.355469 86.0283 0.480469C86.665 0.644531 87.2744 0.804688 87.8486 0.996094C88.4228 1.19141 88.872 1.38281 89.1923 1.57812C89.6376 1.83594 89.9579 2.09375 90.1494 2.38281C90.3408 2.64063 90.4384 2.99609 90.4384 3.44922V4.96484C90.4384 5.64062 90.1806 5.99609 89.704 5.99609C89.4462 5.99609 89.0322 5.86719 88.4892 5.60938C86.6689 4.77344 84.6259 4.35156 82.3603 4.35156C80.54 4.35156 79.1025 4.64062 78.1142 5.25391C77.122 5.86719 76.6142 6.80078 76.6142 8.125C76.6142 9.02734 76.9345 9.80078 77.5712 10.4141C78.2079 11.0273 79.3915 11.6406 81.0829 12.1875L85.6181 13.6406C87.915 14.3828 89.5751 15.4141 90.5634 16.7344C91.5517 18.0586 92.0322 19.5742 92.0322 21.25C92.0322 22.6367 91.7431 23.8945 91.204 24.9883C90.6298 26.0859 89.8603 27.0547 88.872 27.8281C87.8837 28.6328 86.7001 29.2148 85.329 29.6328C83.8876 30.0859 82.3876 30.3125 80.7587 30.3125Z" fill="white"/>
<path d="M86.7939 45.9844C76.29 53.8204 61.0283 57.9805 47.9033 57.9805C29.5126 57.9805 12.9423 51.1133 0.426699 39.6954C-0.565488 38.793 0.329043 37.5665 1.51264 38.2774C15.0478 46.211 31.747 51.0157 49.0205 51.0157C60.6767 51.0157 73.4775 48.5665 85.2587 43.5352C87.0165 42.7266 88.5165 44.6954 86.7939 45.9844ZM91.165 40.9532C89.8251 39.211 82.29 40.1172 78.8759 40.5352C77.8525 40.6602 77.6923 39.7618 78.6181 39.0821C84.622 34.8243 94.4853 36.0508 95.6376 37.4688C96.7861 38.9219 95.3173 48.8868 89.7001 53.6563C88.8369 54.3985 88.0087 54.0118 88.3876 53.0469C89.665 49.8555 92.5087 42.6602 91.165 40.9532Z" fill="#FF9900"/>
</svg>
