<svg width="80" height="80" viewBox="0 0 80 80" fill="none" xmlns="http://www.w3.org/2000/svg">
<path d="M80 40C80 62.0914 62.0914 80 40 80C17.9086 80 0 62.0914 0 40C0 17.9086 17.9086 0 40 0C60.3902 0 77.2162 15.2572 79.6866 34.978C79.8661 36.4033 79.9706 37.8514 79.9934 39.3192C79.9984 39.5461 80 39.7731 80 40Z" fill="#F2F2F2"/>
<path d="M79.9934 39.3191C76.578 43.4791 69.8856 43.1542 69.8856 43.1542C65.7583 60.9355 40.8325 69.9853 23.5264 65.5395C6.22204 61.0953 8.60251 40.4553 8.60251 40.4553H59.2491C63.4286 40.4553 63.747 39.1852 63.747 39.1852C60.0425 30.3999 65.7584 25.6897 65.7584 25.6897C70.2042 26.4849 71.3144 34.1044 71.3144 34.1044C74.9633 33.4497 77.8939 34.2284 79.6866 34.9778C79.8661 36.4031 79.9706 37.8513 79.9934 39.3191Z" fill="#006BC0"/>
<path d="M21.0922 32.4114H14V38.8676H21.0922V32.4114Z" fill="#006BC0"/>
<path d="M30.0049 32.4114H22.9127V38.8676H30.0049V32.4114Z" fill="#006BC0"/>
<path d="M56.7395 32.4114H49.6473V38.8676H56.7395V32.4114Z" fill="#006BC0"/>
<path d="M47.8284 32.4114H40.7363V38.8676H47.8284V32.4114Z" fill="#006BC0"/>
<path d="M47.8284 15.9004H40.7363V22.3566H47.8284V15.9004Z" fill="#006BC0"/>
<path d="M38.9158 32.4114H31.8236V38.8676H38.9158V32.4114Z" fill="#006BC0"/>
<path d="M30.0049 24.155H22.9127V30.6113H30.0049V24.155Z" fill="#006BC0"/>
<path d="M47.8284 24.155H40.7363V30.6113H47.8284V24.155Z" fill="#006BC0"/>
<path d="M38.9158 24.155H31.8236V30.6113H38.9158V24.155Z" fill="#006BC0"/>
</svg>
