<svg width="30" height="23" viewBox="0 0 30 23" fill="none" xmlns="http://www.w3.org/2000/svg">
<path d="M26.3521 0H3.64793C1.63646 0 0 1.63646 0 3.64787V19.0063C0 21.0178 1.63646 22.6542 3.64793 22.6542H26.3521C28.3636 22.6542 30 21.0178 30 19.0063V3.64787C30 1.63646 28.3636 0 26.3521 0ZM24.6042 1.22443L14.9917 8.99443L5.37926 1.22443H24.6042ZM25.0855 21.4297H4.89797V7.13068L14.6077 14.9524C14.8318 15.1329 15.1516 15.1329 15.3758 14.9524L25.0854 7.13068V21.4297H25.0855ZM28.7755 19.0062C28.7755 20.3425 27.6884 21.4296 26.3521 21.4296H26.3101V5.85129C26.3101 5.61557 26.1748 5.40082 25.9621 5.29904C25.7493 5.19721 25.4972 5.22668 25.3137 5.37451L14.9917 13.6894L4.66975 5.37451C4.48611 5.22668 4.23393 5.19721 4.02141 5.29904C3.80871 5.40082 3.67342 5.61557 3.67342 5.85129V21.4296H3.64787C2.31164 21.4297 1.22449 20.3425 1.22449 19.0063V3.64787C1.22449 2.38072 2.2023 1.33822 3.44291 1.23381L14.6069 10.2579C14.7191 10.3487 14.8554 10.3941 14.9917 10.3941C15.1281 10.3941 15.2644 10.3487 15.3766 10.2579L26.542 1.23258C27.7897 1.32984 28.7755 2.37557 28.7755 3.64781V19.0062Z" fill="black"/>
</svg>
