<svg width="68" height="68" viewBox="0 0 68 68" fill="none" xmlns="http://www.w3.org/2000/svg">
<path d="M4.26875 0C1.93125 0 0 1.93125 0 4.26875V62.9312C0 65.2687 1.93125 67.2 4.26875 67.2H62.9312C65.2687 67.2 67.2 65.275 67.2 62.9312V4.26875C67.2 1.93125 65.275 0 62.9312 0H4.26875ZM4.26875 3.2H62.9312C63.525 3.2 64 3.675 64 4.26875V62.9312C64 63.525 63.525 64 62.9312 64H4.26875C3.675 64 3.2 63.525 3.2 62.9312V4.26875C3.2 3.675 3.675 3.2 4.26875 3.2ZM30.4 30.4V50.5187C30.4 53.6062 29.2312 54.4 27.2 54.4C25.075 54.4 23.6 53.075 22.625 51.3562L17.6 54.4C19.0562 57.4812 22.625 60.8 27.575 60.8C33.05 60.8 36.8 57.8875 36.8 51.4937V30.4H30.4ZM50.325 30.4C44.875 30.4 41.3812 33.8875 41.3812 38.4687C41.3812 43.4375 44.3125 45.7875 48.7187 47.6625L50.2437 48.3187C53.025 49.5375 54.4 50.2812 54.4 52.375C54.4 54.1187 53.075 55.3812 50.5437 55.3812C47.5312 55.3812 46.1062 53.3375 44.8 51.2L40 54.4C41.7937 57.9437 45.0125 60.8 50.6812 60.8C56.4812 60.8 60.8 57.7875 60.8 52.2937C60.8 47.1937 57.875 44.925 52.6812 42.7L51.1562 42.05C48.5375 40.9125 47.4 40.175 47.4 38.3437C47.4 36.8625 48.5375 35.725 50.325 35.725C52.0812 35.725 53.2062 36.4687 54.25 38.3437L59.0062 35.2937C57 31.75 54.2062 30.4 50.325 30.4Z" fill="white"/>
</svg>
