<svg width="27" height="30" viewBox="0 0 27 30" fill="currentColor" xmlns="http://www.w3.org/2000/svg">
<path d="M18.9898 22.412L15.3801 25.6699C14.7524 26.2558 13.8924 26.5019 12.9382 26.5019C11.984 26.5019 11.1239 26.2558 10.4962 25.6699L4.69565 20.2206C4.07417 19.6347 3.75401 18.7792 3.75401 17.8885C3.75401 16.9979 4.07417 16.1893 4.69565 15.6092L10.4836 10.1306C11.1051 9.55056 11.9902 9.3279 12.9444 9.3279C13.8986 9.3279 14.7587 9.574 15.3864 10.1599L18.996 13.4178C19.6866 14.0623 20.8291 14.0389 21.5448 13.3709C22.2541 12.7029 22.2855 11.6365 21.595 10.992L18.1046 7.69898C17.2006 6.86108 16.0644 6.28686 14.8277 6.02318L18.1297 2.9001C18.8203 2.25556 18.8014 1.18915 18.0795 0.52117C17.3576 -0.152665 16.2151 -0.176103 15.5245 0.468435L1.99628 13.0955C0.68426 14.326 0 16.0135 0 17.8885C0 19.7577 0.68426 21.5097 1.99628 22.7343L7.8219 28.1836C9.13392 29.4082 10.9482 30 12.957 30C14.9595 30 16.7738 29.3613 18.0921 28.1367L21.5887 24.8378C22.2792 24.1992 22.2541 23.1327 21.5385 22.4648C20.8166 21.7909 19.674 21.7675 18.9898 22.412ZM25.2988 16.2655H11.7015C10.7661 16.2655 10.0002 17.0155 10.0002 17.9471C10.0002 18.8788 10.7661 19.6347 11.7015 19.6347H25.2988C26.2341 19.6347 27 18.8788 27 17.9471C26.9937 17.0155 26.2341 16.2655 25.2988 16.2655Z"/>
</svg>
