<svg width="72" height="80" viewBox="0 0 72 80" fill="none" xmlns="http://www.w3.org/2000/svg">
<path d="M72 26.6016C72 67.6016 36 80 36 80C36 80 0 67.6016 0 26.6016C0 21.6016 0.398438 17.3984 0.800781 14C1.39844 9 4.80078 5 9.60156 3.80078C15.8008 2 25.6016 0 36 0C46.3984 0 56.1992 2 62.6016 3.80078C67.3984 5 70.8008 9.19922 71.3984 14C71.6016 17.3984 72 21.8008 72 26.6016Z" fill="#5D4037"/>
<path d="M36 6C45.8008 6 55 8 61 9.60156C63.3984 10.1992 65 12.1992 65.3984 14.8008C65.8008 18.6016 66 22.6016 66 26.6016C66 57.8008 43 70.3984 36 73.3984C29 70.1992 6 57.6016 6 26.6016C6 22.6016 6.19922 18.6016 6.60156 14.8008C6.80078 12.1992 8.60156 10.1992 11 9.60156C17 8 26.1992 6 36 6ZM36 0C25.6016 0 15.8008 2 9.39844 3.80078C4.80078 5 1.19922 9.19922 0.800781 14C0.398438 17.3984 0 21.8008 0 26.6016C0 67.6016 36 80 36 80C36 80 72 67.6016 72 26.6016C72 21.6016 71.6016 17.3984 71.1992 14C70.6016 9 67.1992 5 62.3984 3.80078C56.1992 2 46.3984 0 36 0Z" fill="#4CAF50"/>
<path d="M34 48H38V64H34V48Z" fill="#DCEDC8"/>
<path d="M36 12C36 12 24 22 24 38C24 48.3984 30.6016 55 34 58L36 52L38 58C41.3984 55 48 48.3984 48 38C48 22 36 12 36 12Z" fill="#4CAF50"/>
<path d="M36 12C36 12 24 22 24 38C24 48.3984 30.6016 55 34 58L36 52V12Z" fill="#81C784"/>
</svg>
