<svg width="80" height="80" viewBox="0 0 80 80" fill="none" xmlns="http://www.w3.org/2000/svg">
<path d="M40 80C62.0914 80 80 62.0914 80 40C80 17.9086 62.0914 0 40 0C17.9086 0 0 17.9086 0 40C0 62.0914 17.9086 80 40 80Z" fill="white"/>
<path d="M29.0079 34.5943H37.9207V35.3042H29.825V40.6478H37.4379V41.3578H29.825V47.2243H38.0136V47.9343H29.0079V34.5943ZM38.7193 34.5943H39.6664L43.8629 40.4614L48.1521 34.5943L53.9864 27.1428L44.4014 41.0778L49.3407 47.9343H48.3564L43.8629 41.6942L39.3507 47.9343H38.385L43.3614 41.0778L38.7193 34.5943ZM49.6936 35.3042V34.5943H59.85V35.3042H55.1714V47.9343H54.3536V35.3042H49.6936ZM17.8571 34.5943H18.8786L32.9614 55.7143L27.1414 47.9343L18.7114 35.6035L18.6743 47.9343H17.8571V34.5943ZM59.7686 47.01C59.6007 47.01 59.4757 46.8807 59.4757 46.7135C59.4757 46.5457 59.6007 46.4157 59.7679 46.4157C59.9371 46.4157 60.06 46.5457 60.06 46.7135C60.06 46.8807 59.9371 47.01 59.7679 47.01H59.7686ZM60.5707 46.2285H61.0079C61.0143 46.4657 61.1872 46.625 61.4414 46.625C61.7257 46.625 61.8864 46.4543 61.8864 46.1328V44.0993H62.3314V46.135C62.3314 46.7135 61.9979 47.0464 61.445 47.0464C60.9271 47.0464 60.5714 46.7228 60.5714 46.2285H60.5707ZM62.9136 46.2028H63.355C63.3929 46.4757 63.6586 46.6493 64.0429 46.6493C64.4 46.6493 64.6621 46.4635 64.6621 46.2085C64.6621 45.9893 64.4957 45.8578 64.1157 45.7678L63.7464 45.6785C63.2279 45.5571 62.9914 45.305 62.9914 44.8828C62.9914 44.37 63.4086 44.0285 64.0343 44.0285C64.6164 44.0285 65.0421 44.37 65.0679 44.8543H64.6343C64.5929 44.5893 64.3629 44.4235 64.0286 44.4235C63.6764 44.4235 63.4422 44.5935 63.4422 44.8528C63.4422 45.0578 63.5936 45.1757 63.9671 45.2635L64.2829 45.3414C64.8707 45.4785 65.1136 45.7178 65.1136 46.1507C65.1136 46.7007 64.6879 47.0464 64.0086 47.0464C63.3729 47.0464 62.9457 46.7171 62.9136 46.2028Z" fill="black"/>
</svg>
