<svg width="73" height="73" viewBox="0 0 73 73" fill="none" xmlns="http://www.w3.org/2000/svg">
<path d="M36.25 0C23.4448 0 18.75 6.29639 18.75 10.9546V18.75H35V21.25H10.9546C8.18604 21.25 5.34668 22.2998 3.29346 24.7559C1.24023 27.2119 0 30.9644 0 36.25C0 41.5356 1.24023 45.2881 3.29346 47.7441C5.34668 50.2002 8.18604 51.25 10.9546 51.25H18.75V61.5454C18.75 66.2036 23.4448 72.5 36.25 72.5C49.0552 72.5 53.75 66.2036 53.75 61.5454V53.75H37.5V51.25H61.5454C64.314 51.25 67.1533 50.2002 69.2065 47.7441C71.2598 45.2881 72.5 41.5356 72.5 36.25C72.5 30.9644 71.2598 27.2119 69.2065 24.7559C67.1533 22.2998 64.314 21.25 61.5454 21.25H53.7524V10.9546C53.7524 8.56445 52.5806 5.76416 49.79 3.62061C46.9995 1.47705 42.6465 0 36.25 0ZM36.25 2.5C42.2632 2.5 46.0352 3.88916 48.2666 5.60303C50.498 7.31689 51.2524 9.36768 51.2524 10.9546V21.25H51.25V29.8853C51.25 30.9106 50.8813 31.8896 50.2686 32.7075C49.4531 33.7988 48.2056 34.6118 46.8384 34.8926C46.4966 34.9634 46.1475 35 45.7959 35H26.7041C22.522 35 18.75 38.3521 18.75 42.6147V48.75H10.9546C8.78906 48.75 6.77734 48.0127 5.2124 46.1401C3.64746 44.2676 2.5 41.145 2.5 36.25C2.5 31.355 3.64746 28.2324 5.2124 26.3599C6.77734 24.4873 8.78906 23.75 10.9546 23.75H37.5V16.25H21.25V10.9546C21.25 7.97363 24.2358 2.5 36.25 2.5ZM29.375 7.5C27.6489 7.5 26.25 8.89893 26.25 10.625C26.25 12.3511 27.6489 13.75 29.375 13.75C31.1011 13.75 32.5 12.3511 32.5 10.625C32.5 8.89893 31.1011 7.5 29.375 7.5ZM53.7524 23.75H61.5454C63.7109 23.75 65.7227 24.4873 67.2876 26.3599C68.8525 28.2324 70 31.355 70 36.25C70 41.145 68.8525 44.2676 67.2876 46.1401C65.7227 48.0127 63.7109 48.75 61.5454 48.75H35V56.25H51.25V61.5454C51.25 64.5264 48.2642 70 36.25 70C24.2358 70 21.25 64.5264 21.25 61.5454V42.6147C21.25 42.2729 21.2915 41.936 21.3696 41.6089C21.9116 39.3213 24.2383 37.5 26.7041 37.5H45.7959C46.0571 37.5 46.3184 37.4854 46.5747 37.4609C48.1177 37.3071 49.5752 36.7017 50.7666 35.7788H50.769C50.9668 35.625 51.1572 35.4614 51.3403 35.2905H51.3428C52.8101 33.9209 53.7524 32.0166 53.7524 29.8853V23.75ZM15.7959 26.3354C15.1074 26.3452 14.5557 26.9141 14.5654 27.6025V30.1025C14.5581 30.5542 14.7949 30.9717 15.1855 31.1987C15.5737 31.4282 16.0571 31.4282 16.4453 31.1987C16.8359 30.9717 17.0728 30.5542 17.0654 30.1025V27.6025C17.0703 27.2656 16.9385 26.9385 16.6992 26.7017C16.46 26.4624 16.1328 26.3306 15.7959 26.3354ZM21.5015 26.3354C20.813 26.3452 20.2612 26.9141 20.271 27.6025V30.1025C20.2637 30.5542 20.5005 30.9717 20.8911 31.1987C21.2793 31.4282 21.7627 31.4282 22.1509 31.1987C22.5415 30.9717 22.7783 30.5542 22.771 30.1025V27.6025C22.7759 27.2656 22.644 26.9385 22.4048 26.7017C22.1655 26.4624 21.8384 26.3306 21.5015 26.3354ZM27.2095 26.3354C26.521 26.3452 25.9692 26.9141 25.979 27.6025V30.1025C25.9717 30.5542 26.2085 30.9717 26.5991 31.1987C26.9873 31.4282 27.4707 31.4282 27.8589 31.1987C28.2495 30.9717 28.4863 30.5542 28.479 30.1025V27.6025C28.4839 27.2656 28.3521 26.9385 28.1128 26.7017C27.8735 26.4624 27.5464 26.3306 27.2095 26.3354ZM32.915 26.3354C32.2266 26.3452 31.6748 26.9141 31.6846 27.6025V30.1025C31.6772 30.5542 31.9141 30.9717 32.3047 31.1987C32.6929 31.4282 33.1763 31.4282 33.5645 31.1987C33.9551 30.9717 34.1919 30.5542 34.1846 30.1025V27.6025C34.1895 27.2656 34.0576 26.9385 33.8184 26.7017C33.5791 26.4624 33.252 26.3306 32.915 26.3354ZM43.2959 41.2329C42.6074 41.2427 42.0557 41.8115 42.0654 42.5V45C42.0581 45.4517 42.2949 45.8691 42.6855 46.0962C43.0737 46.3257 43.5571 46.3257 43.9453 46.0962C44.3359 45.8691 44.5728 45.4517 44.5654 45V42.5C44.5703 42.1631 44.4385 41.8359 44.1992 41.5991C43.96 41.3599 43.6328 41.228 43.2959 41.2329ZM49.0015 41.2329C48.313 41.2427 47.7612 41.8115 47.771 42.5V45C47.7637 45.4517 48.0005 45.8691 48.3911 46.0962C48.7793 46.3257 49.2627 46.3257 49.6509 46.0962C50.0415 45.8691 50.2783 45.4517 50.271 45V42.5C50.2759 42.1631 50.144 41.8359 49.9048 41.5991C49.6655 41.3599 49.3384 41.228 49.0015 41.2329ZM54.7095 41.2329C54.021 41.2427 53.4692 41.8115 53.479 42.5V45C53.4717 45.4517 53.7085 45.8691 54.0991 46.0962C54.4873 46.3257 54.9707 46.3257 55.3589 46.0962C55.7495 45.8691 55.9863 45.4517 55.979 45V42.5C55.9839 42.1631 55.8521 41.8359 55.6128 41.5991C55.3735 41.3599 55.0464 41.228 54.7095 41.2329ZM60.415 41.2329C59.7266 41.2427 59.1748 41.8115 59.1846 42.5V45C59.1772 45.4517 59.4141 45.8691 59.8047 46.0962C60.1929 46.3257 60.6763 46.3257 61.0645 46.0962C61.4551 45.8691 61.6919 45.4517 61.6846 45V42.5C61.6895 42.1631 61.5576 41.8359 61.3184 41.5991C61.0791 41.3599 60.752 41.228 60.415 41.2329ZM44.375 58.75C42.6489 58.75 41.25 60.1489 41.25 61.875C41.25 63.6011 42.6489 65 44.375 65C46.1011 65 47.5 63.6011 47.5 61.875C47.5 60.1489 46.1011 58.75 44.375 58.75Z" fill="white"/>
</svg>
