<svg width="80" height="78" viewBox="0 0 80 78" fill="none" xmlns="http://www.w3.org/2000/svg">
<path d="M35.441 0.276318C17.0387 2.27632 2.23791 17.0771 0.237911 35.0771C-1.76209 53.8779 9.03869 70.6787 25.441 77.0771C26.6403 77.4794 27.8395 76.6787 27.8395 75.0771V68.6787C27.8395 68.6787 26.2379 69.0771 24.2379 69.0771C18.6403 69.0771 16.2379 64.2763 15.8395 61.4794C15.441 59.8779 14.6403 58.6787 13.441 57.4794C12.2379 57.0771 11.8395 57.0771 11.8395 56.6787C11.8395 55.8779 13.0387 55.8779 13.441 55.8779C15.8395 55.8779 17.8395 58.6787 18.6403 59.8779C20.6403 63.0771 23.0387 63.8779 24.2379 63.8779C25.8395 63.8779 27.0387 63.4794 27.8395 63.0771C28.2379 60.2763 29.441 57.4794 31.8395 55.8779C22.6403 53.8779 15.8395 48.6787 15.8395 39.8779C15.8395 35.4794 17.8395 31.0771 20.6403 27.8779C20.2379 27.0771 19.8395 25.0771 19.8395 22.2763C19.8395 20.6787 19.8395 18.6787 20.6403 17.0771C20.6403 16.2763 21.441 15.8779 21.8395 15.8779H22.2379C24.2379 16.2763 28.2379 17.4794 31.8395 21.0771C34.2379 20.2763 37.0387 19.8779 39.8395 19.8779C42.6403 19.8779 45.441 20.2763 47.8395 21.0771C51.441 17.4794 55.8395 16.2763 57.8395 15.8779H58.2379C59.0387 15.8779 59.441 16.2763 59.8395 17.0771C59.8395 18.6787 59.8395 20.6787 59.8395 22.2763C59.8395 25.4794 59.441 27.0771 59.0387 27.8779C61.8395 31.0771 63.8395 35.0771 63.8395 39.8779C63.8395 48.6787 57.0387 53.8779 47.8395 55.8779C50.2379 57.8779 51.8395 61.4794 51.8395 65.0771V75.4794C51.8395 76.6787 53.0387 77.8779 54.6403 77.4794C69.441 71.4794 79.8395 57.0771 79.8395 40.2763C79.8395 16.2763 59.441 -2.52056 35.441 0.276318Z" fill="white"/>
</svg>
