<svg width="60" height="80" viewBox="0 0 60 80" fill="none" xmlns="http://www.w3.org/2000/svg">
<path d="M29.2692 14.8229C25.5727 17.4228 21.3831 20.3696 19.1384 25.2449C15.2394 33.7501 27.1168 43.0279 27.6244 43.4188C27.7424 43.5098 27.8835 43.5549 28.0244 43.5549C28.1739 43.5549 28.3237 43.5037 28.4454 43.402C28.6812 43.2047 28.748 42.8698 28.6064 42.597C28.5634 42.5141 24.3001 34.2329 24.4585 28.2917C24.5146 26.2227 27.4103 23.8755 30.476 21.3902C33.2839 19.114 36.4666 16.5341 38.3289 13.5162C42.417 6.87303 37.8733 0.340849 37.8268 0.2758C37.6464 0.0224239 37.3133 -0.0696414 37.0284 0.055473C36.7438 0.18085 36.5862 0.488783 36.6512 0.792782C36.6604 0.835798 37.5441 5.15552 35.0853 9.60587C34.0721 11.4448 31.8465 13.0104 29.2692 14.8229Z" fill="white"/>
<path d="M44.8429 17.7524C45.1036 17.5559 45.1802 17.1976 45.0223 16.9117C44.8644 16.6258 44.5205 16.4997 44.2152 16.6156C43.5873 16.8543 28.8377 22.5395 28.8377 29.4093C28.8377 34.1445 30.8605 36.6462 32.3375 38.4731C32.9169 39.1894 33.4171 39.8082 33.5818 40.3364C34.0458 41.8588 32.9465 44.6103 32.4844 45.5419C32.3511 45.81 32.4165 46.1345 32.6431 46.3301C32.7656 46.4358 32.9185 46.4893 33.0717 46.4893C33.202 46.4893 33.3329 46.4505 33.446 46.3718C33.6996 46.1953 39.644 41.9926 38.5777 36.929C38.1806 35.0045 37.2348 33.5981 36.4002 32.3572C35.1073 30.4348 34.1736 29.046 35.5902 26.481C37.2505 23.4898 44.7671 17.8093 44.8429 17.7524Z" fill="white"/>
<path d="M6.4496 46.5986C6.19675 47.3554 6.31609 48.1068 6.79452 48.7712C8.39346 50.9908 14.0569 52.2133 22.7425 52.2133C22.7431 52.2133 22.7433 52.2133 22.7436 52.2133C23.9205 52.2133 25.163 52.1902 26.4356 52.1446C40.3223 51.6473 45.473 47.3213 45.6854 47.1374C45.917 46.937 45.9789 46.6031 45.8349 46.3329C45.6909 46.063 45.3804 45.9274 45.0837 46.009C40.1932 47.3443 31.0607 47.8183 24.7263 47.8183C17.6383 47.8183 14.0286 47.3079 13.1449 46.931C13.5984 46.3083 16.3953 45.1964 19.861 44.5147C20.1922 44.4497 20.4199 44.1438 20.3871 43.8078C20.3543 43.4718 20.0721 43.2156 19.7345 43.2156C17.7028 43.2158 7.51452 43.379 6.4496 46.5986Z" fill="white"/>
<path d="M52.9171 42.1433C50.0529 42.1433 47.3368 43.5786 47.2224 43.6397C46.9575 43.7816 46.8232 44.0853 46.8959 44.377C46.9688 44.6684 47.2308 44.8733 47.5314 44.8735C47.5923 44.8738 53.6411 44.9231 54.189 48.3791C54.6742 51.3606 48.4657 56.1915 46.0324 57.8015C45.7696 57.9754 45.6676 58.3117 45.7895 58.602C45.8931 58.8494 46.1342 59.0041 46.3939 59.0041C46.4392 59.0041 46.4851 58.9994 46.5308 58.9894C47.1084 58.8661 60.6566 55.8807 59.2242 47.9922C58.3503 43.1579 55.3119 42.1433 52.9171 42.1433Z" fill="white"/>
<path d="M43.6259 56.8363C43.6731 56.5834 43.5679 56.3264 43.3575 56.179L40.109 53.9036C39.9506 53.7926 39.7505 53.7577 39.5645 53.807C39.5307 53.816 36.1334 54.7088 31.2012 55.2565C29.2437 55.476 27.0512 55.592 24.8603 55.592C19.9294 55.592 16.7053 55.0125 16.2358 54.5876C16.1736 54.4683 16.1933 54.414 16.2043 54.3838C16.2896 54.1464 16.7467 53.8645 17.0416 53.753C17.3671 53.6326 17.5425 53.279 17.4413 52.947C17.3403 52.6149 16.998 52.4192 16.6602 52.5006C13.4014 53.2869 11.808 54.3867 11.9239 55.769C12.1298 58.2196 17.8067 59.4776 22.6059 59.8104C23.296 59.8577 24.0424 59.8818 24.8238 59.8818C24.8243 59.8818 24.8246 59.8818 24.8251 59.8818C32.8054 59.8818 43.036 57.3779 43.1383 57.3525C43.388 57.2908 43.5784 57.0891 43.6259 56.8363Z" fill="white"/>
<path d="M19.1344 62.0966C19.3804 61.9364 19.4896 61.6324 19.4022 61.3522C19.3151 61.0721 19.0531 60.8882 18.7588 60.8919C18.3221 60.9034 14.4855 61.0766 14.2169 63.5193C14.1356 64.2493 14.3447 64.916 14.8386 65.5012C16.2161 67.1337 19.9344 68.1039 26.2043 68.4677C26.9461 68.5121 27.6994 68.5344 28.444 68.5344C36.4151 68.5344 41.7835 66.0386 42.0083 65.9324C42.2263 65.8293 42.37 65.6153 42.3829 65.3745C42.3957 65.134 42.2756 64.9055 42.07 64.7799L37.9645 62.2737C37.8221 62.1868 37.6516 62.158 37.489 62.1913C37.463 62.1968 34.8563 62.7374 30.9224 63.2717C30.1781 63.3727 29.2459 63.4241 28.1521 63.4241C24.2224 63.4241 19.8515 62.782 19.0132 62.3618C19.0012 62.2828 19.0166 62.1832 19.1344 62.0966Z" fill="white"/>
<path d="M24.7291 76.0697C42.9874 76.0542 52.787 72.8073 54.6748 70.764C55.3431 70.0409 55.4152 69.3566 55.3583 68.9096C55.218 67.8096 54.2163 67.1362 54.1024 67.0631C53.8283 66.8868 53.4606 66.933 53.2468 67.1795C53.0336 67.4263 53.0286 67.7865 53.2426 68.0328C53.3578 68.181 53.4244 68.4288 53.0876 68.7659C52.333 69.4707 44.7212 71.6102 32.0477 72.2528C30.3116 72.3433 28.4907 72.3889 26.6358 72.3892C15.2884 72.3892 6.98389 70.8351 5.8938 69.9292C6.31426 69.3256 9.25143 68.3609 12.3754 67.8156C12.7274 67.7542 12.9653 67.4224 12.9107 67.0694C12.8561 66.7163 12.5306 66.4732 12.175 66.5196C12.0868 66.5314 11.7881 66.5498 11.4416 66.5707C6.28724 66.8855 0.330802 67.5871 0.0199832 70.2426C-0.0744427 71.052 0.166081 71.7865 0.734997 72.4259C2.12699 73.99 6.12829 76.0695 24.7284 76.0695C24.7289 76.0697 24.7289 76.0697 24.7291 76.0697Z" fill="white"/>
<path d="M58.2611 71.3397C58.003 71.2204 57.6982 71.2807 57.5054 71.4885C57.4784 71.5173 54.7335 74.3879 46.4799 76.0734C43.32 76.7065 37.3888 77.0276 28.8508 77.0276C20.2969 77.0276 12.1576 76.6911 12.0763 76.6877C11.7364 76.6711 11.4455 76.9182 11.3993 77.2529C11.3529 77.5876 11.5685 77.9026 11.8969 77.9808C11.9816 78.001 20.5117 79.9994 32.1749 79.9994C37.7688 79.9994 43.2122 79.5448 48.3542 78.6483C57.9419 76.9675 58.6131 72.2134 58.637 72.012C58.6703 71.7303 58.5187 71.4591 58.2611 71.3397Z" fill="white"/>
</svg>
