<svg width="101" height="54" viewBox="0 0 101 54" fill="none" xmlns="http://www.w3.org/2000/svg">
<path d="M62.3438 0.00106788C61.4062 -0.0223701 60.5859 0.337006 60.1641 1.37607C59.4453 3.11826 61.2344 4.82138 61.875 5.71201C62.3203 6.32919 62.8984 7.02451 63.2188 7.71982C63.4297 8.18076 63.4609 8.64169 63.6406 9.12607C64.0859 10.3214 64.7969 11.6808 65.3672 12.7901C65.6562 13.3526 65.9766 13.9386 66.3438 14.4386C66.5703 14.7433 66.9531 14.8839 67.0156 15.3526C66.6406 15.8839 66.6172 16.7042 66.4062 17.3761C65.4531 20.3839 65.8125 24.1261 67.1953 26.3448C67.625 27.0323 68.6328 28.4933 70.0078 27.9386C71.2109 27.4464 70.9453 25.9229 71.2891 24.5714C71.3672 24.2745 71.3203 24.0479 71.4766 23.8448V23.9073C71.8359 24.6417 72.2031 25.3761 72.5703 26.1026C73.3906 27.4151 74.8359 28.7823 76.0547 29.712C76.6875 30.1886 77.1875 31.0167 78.0078 31.2979V31.2354H77.9453C77.7891 30.9854 77.5391 30.8839 77.3359 30.6886C76.8594 30.2198 76.3281 29.6339 75.9375 29.0948C74.8203 27.587 73.8359 25.9308 72.9453 24.212C72.5156 23.3917 72.1406 22.4854 71.7812 21.6495C71.6406 21.3214 71.6406 20.837 71.3516 20.6651C70.9531 21.2823 70.375 21.7745 70.0703 22.5011C69.5859 23.6573 69.5156 25.0714 69.3359 26.5323C69.2266 26.5714 69.2734 26.5401 69.2188 26.5948C68.3672 26.3839 68.0625 25.5089 67.75 24.7589C66.9531 22.8604 66.7969 19.7979 67.5078 17.6183C67.6875 17.0479 68.5078 15.2667 68.1797 14.7433C68.0234 14.2198 67.4922 13.9229 67.2031 13.5245C66.8359 13.0323 66.4766 12.3839 66.2266 11.8136C65.5703 10.3292 64.9531 8.61044 64.2578 7.11044C63.9297 6.39169 63.375 5.67294 62.9141 5.03232C62.4062 4.32919 61.8438 3.81357 61.4453 2.95419C61.3125 2.65732 61.1172 2.17294 61.3281 1.86044C61.3906 1.64951 61.4844 1.56357 61.6953 1.49326C62.0469 1.21982 63.0312 1.57919 63.4062 1.73544C64.3828 2.14169 65.2031 2.53232 66.0312 3.07919C66.4297 3.34482 66.8281 3.85263 67.3125 4.00107H67.8594C68.7266 4.19638 69.6875 4.05576 70.4844 4.30576C71.9062 4.73544 73.1797 5.40732 74.3281 6.13388C77.8516 8.35263 80.7344 11.5167 82.6953 15.2901C83.0156 15.8995 83.1562 16.4854 83.4375 17.1261C83.9922 18.4229 84.7031 19.7667 85.2656 21.0323C85.8203 22.3058 86.3672 23.5792 87.1562 24.6339C87.5703 25.1886 89.1797 25.4933 89.9062 25.7979C90.4141 26.0167 91.2578 26.2433 91.7344 26.5323C92.6641 27.087 93.5547 27.7511 94.4219 28.3683C94.8594 28.6729 96.1875 29.337 96.2578 29.8917C94.1094 29.837 92.4688 30.0323 91.0703 30.6261C90.6719 30.7979 90.0312 30.7979 89.9688 31.2979C90.1797 31.5245 90.2188 31.8683 90.3906 32.1495C90.7266 32.6886 91.2891 33.4151 91.7969 33.7979C92.3516 34.212 92.9141 34.6573 93.5078 35.0245C94.5547 35.6573 95.7266 36.0245 96.7422 36.6651C97.3359 37.0479 97.9375 37.5245 98.5156 37.9464C98.8047 38.1651 98.9922 38.4933 99.3672 38.6261V38.5636C99.1719 38.3136 99.125 37.9698 98.9453 37.712L98.1406 36.9073C97.3672 35.8839 96.3828 34.9776 95.3359 34.2276C94.5 33.6261 92.6328 32.8136 92.2891 31.8448L92.2266 31.7823C92.8125 31.7198 93.5078 31.5011 94.0547 31.3526C94.9766 31.1104 95.7891 31.1729 96.7344 30.9308C97.1641 30.8058 97.5938 30.6808 98.0234 30.5636V30.3136C97.5469 29.8292 97.2031 29.1729 96.6797 28.7276C95.3125 27.5636 93.8203 26.3995 92.2812 25.4308C91.4297 24.8917 90.375 24.5401 89.4766 24.087C89.1719 23.9308 88.6406 23.8526 88.4375 23.5948C87.9609 22.9933 87.7031 22.2276 87.3359 21.5245C86.5703 20.0479 85.8203 18.4386 85.1406 16.8839C84.6797 15.8292 84.375 14.7823 83.7969 13.8292C81.0234 9.27451 78.0391 6.51669 73.4141 3.81357C72.4297 3.23544 71.25 3.01669 70 2.71982C69.3203 2.67294 68.6562 2.63388 67.9766 2.59482C67.5703 2.42294 67.1406 1.92294 66.7578 1.67294C65.7969 1.07138 63.9062 0.0245059 62.3438 0.00106788ZM68.9609 6.62607C68.5156 6.61826 68.1953 6.68076 67.8594 6.75107V6.81357H67.9219C68.1328 7.25107 68.5156 7.53232 68.7812 7.90732C68.9844 8.33701 69.1797 8.76669 69.3828 9.19638L69.4453 9.13388C69.8203 8.86826 70 8.43857 70 7.79013C69.8438 7.63388 69.8203 7.43076 69.6953 7.24326C69.5156 6.98544 69.1797 6.84482 68.9609 6.62607ZM3.74219 31.9933C3.14062 32.0167 2.48437 32.1339 1.77344 32.3604C0.585938 32.7198 0 33.4308 0 34.8761V50.0011H4.00781V35.2433L9.5625 47.8604C10.25 49.4308 11.1875 49.9933 13.0234 49.9933C14.8672 49.9933 15.7656 49.4308 16.4531 47.8604L22.0078 35.5636V50.0011H26.0078V34.8761C26.0078 33.4308 25.4297 32.7198 24.2344 32.3604C21.3906 31.462 19.4766 32.2354 18.6172 34.1808L12.9141 47.0089L7.39844 34.1808C6.77344 32.7198 5.52344 31.9229 3.74219 31.9933ZM52.5 32.0011C50.9219 32.0011 46.0078 32.1886 46.0078 36.0011V38.4698C46.0078 40.2198 47.5469 41.6495 50.8828 42.0011C51.2578 42.0245 51.6328 42.0558 52.0078 42.0558C52.0078 42.0558 55.8984 41.9776 56.0078 42.0011C58.2578 42.0011 58.0078 43.7511 58.0078 44.0011V46.0011C58.0078 46.2745 57.9453 48.0011 55.9844 48.0011H46.0078V50.0011H56.0234C57.3359 50.0011 58.6094 49.7276 59.625 49.2511C61.3125 48.4776 62.0078 47.4308 62.0078 46.0558V43.1964C62.0078 40.1261 58.1953 40.0011 56.0078 40.0011H52.0078C50.4375 40.0011 50.1953 39.0479 50.0078 38.0011V36.0011C50.1953 35.2042 50.5469 34.1261 51.9375 34.0011H62.0078V32.0011H52.5ZM67.9688 32.0011C65.0156 32.4073 63.9766 33.8761 63.9766 36.0011V46.0011C63.9766 47.9464 65.0625 49.1183 67.2969 49.7276C68.0469 49.9386 68.7266 50.0245 69.3672 50.0245L73.8203 50.0011H76.4375L78.6641 52.0011H83.1641L80.0703 49.212C81.5234 48.6104 81.9766 47.6886 81.9766 45.962V36.0011C81.9766 33.8761 80.5938 32.4073 77.6406 32.0011H67.9688ZM84.0078 32.0011V45.9151C84.0078 48.3292 85.375 49.6886 88.9922 49.962C89.3281 49.9776 89.6719 50.0011 90.0078 50.0011H100.008V48.0011H90.7656C88.7031 48.0011 88.0078 47.1339 88.0078 45.8995V32.0011H84.0078ZM70.3516 34.0011H75.5C76.8594 34.0011 77.7734 35.0948 77.9766 36.0011C77.9766 36.0011 78.0078 45.3136 78.0078 46.0011C78.0078 46.6886 77.625 47.0011 77.625 47.0011L76.5391 46.0011H72.0078L74.2344 48.0011H70.3516C68.9609 48.0011 68.1797 46.9698 67.9766 46.0011V36.2042C67.9766 35.1417 68.7891 34.0011 70.3516 34.0011ZM28.0078 38.0011C28.0859 38.0792 28.0078 46.5245 28.0078 46.6886C28.0391 48.4386 30.2578 49.9698 33.7344 50.0011H40.0078V50.1339C40.0078 50.5089 40.2812 51.7589 38.0078 52.0011C37.9844 52.0011 28.0312 52.0011 28.0078 52.0011V54.0011H38.4375C40.2031 53.9464 44.0312 53.5479 44.0078 50.4854C44.0078 50.4308 44.0234 38.0011 44.0078 38.0011H40.0078V48.0011C39.9453 48.0011 35.0547 48.0167 34.0703 48.0011C32.1406 47.9698 31.9766 46.8683 32.0078 46.4464V38.0011H28.0078Z" fill="white"/>
</svg>
