<svg width="80" height="80" viewBox="0 0 80 80" fill="none" xmlns="http://www.w3.org/2000/svg">
<path d="M80 40C80 62.0914 62.0914 80 40 80C19.618 80 2.79672 64.7559 0.316719 45.0466C0.107812 43.3942 0 41.7094 0 40C0 36.8686 0.359219 33.8205 1.04 30.8962C5.16078 13.1919 21.04 0 40 0C58.9127 0 74.7608 13.1266 78.9273 30.7658C79.4742 33.0727 79.8187 35.4564 79.9445 37.8972C79.982 38.5942 80 39.2947 80 40Z" fill="#F2F2F2"/>
<path d="M37.9992 43.2125V32.8126L28.9927 27.6128L19.9863 32.8126V43.2125L28.9927 48.4123L37.9992 43.2125Z" fill="#3B8739"/>
<path d="M73.4694 41.6343L79.3387 45.0237L73.4694 48.413L64.4636 43.213V32.813L73.4694 27.613L78.9273 30.7657C79.4742 33.0726 79.8187 35.4563 79.9445 37.8971L76.6073 39.8237V36.2008L73.4694 34.3902L70.3314 36.2008V39.8237L73.4694 41.6343Z" fill="#333333"/>
<path d="M75.2175 39.0218V37.003L73.4692 35.9937L71.7208 37.003V39.0218L73.4692 40.0313L75.2175 39.0218Z" fill="#66A060"/>
<path d="M15.7322 32.8132V46.5274L9.72563 43.1005V36.0704L6.72656 34.338L3.72734 36.0702V43.1004L0.316719 45.0466C0.107812 43.3943 0 41.7094 0 40.0001C0 36.8687 0.359219 33.8205 1.04 30.8963L6.72656 27.613L15.7322 32.8132Z" fill="#333333"/>
<path d="M37.9983 43.2113L28.992 27.6123L19.986 32.8121L28.9923 48.411L37.9983 43.2113Z" fill="#6DA75D"/>
<path d="M19.9863 43.2123L23.0788 38.1692L19.9863 32.8125V43.2123Z" fill="#55A344"/>
<path d="M34.9967 38.0122L37.9992 32.8126L28.9927 27.6128L34.9967 38.0122Z" fill="#639D57"/>
<path d="M54.1486 15.5592V29.3567L51.1298 27.613L42.1225 32.813V43.213L51.1298 48.413L60.1356 43.213V18.764L54.1486 15.5592ZM54.1322 39.7453L51.1297 41.4792L48.1272 39.7453V36.2792L51.1297 34.5453L54.1322 36.2792V39.7453Z" fill="#333333"/>
<path d="M44.0858 56.0496C44.0858 56.0496 43.9089 54.5294 42.2828 54.5294C40.6566 54.5294 39.5431 54.7414 39.5431 55.643C39.5431 56.5445 42.7072 56.5446 43.9092 56.898C45.1112 57.2514 46.1717 58.1706 45.6414 59.7969C45.1111 61.4232 43.4848 61.5999 40.9748 61.5999C38.4648 61.5999 37.8991 59.5139 37.8991 58.701H39.3131C39.3131 58.701 39.1362 59.9736 40.7978 60.1856C42.4594 60.3977 44.0481 60.5171 44.2623 59.2313C44.5452 57.5342 38.8888 58.3828 38.3938 56.7213C37.9756 55.3174 38.2169 53.4689 41.0452 53.186C43.8734 52.903 45.4289 54.1517 45.4289 56.0142L44.0858 56.0496Z" fill="#66A060"/>
<path d="M30.4255 62.6767L33.5517 64.4816C35.1225 65.3884 37.0859 64.2548 37.0859 62.4411V59.2783V53.4575H35.8117V62.0867C35.8117 63.0772 34.7395 63.6964 33.8816 63.2009L31.6995 61.9412V52.7319L39.675 48.1277L47.6505 52.7319V61.9412L39.675 66.5455L37.3775 65.2191L35.8772 65.8241L39.6748 68.0167L48.9245 62.6762V51.9964L39.675 46.6562L30.4253 51.9967V62.6767H30.4255Z" fill="#66A060"/>
</svg>
