<svg width="67" height="74" viewBox="0 0 67 74" fill="none" xmlns="http://www.w3.org/2000/svg">
<path d="M49.4536 0C46.1911 0 43.3661 0.88125 41.4099 1.75C39.4911 1.10625 36.3099 0.00624962 32.4911 0.8C30.2661 1.1875 28.2224 2.10625 26.3474 3.5125C23.2599 2.025 20.0349 1.1125 16.6536 0.9625C14.5724 0.8 6.09111 1.7625 3.04736 6.2375C1.92861 8 0.809857 10.2375 0.328607 12.9563C-0.152643 15.3562 -0.152644 18.0813 0.647356 23.6812C1.12861 27.5188 1.77236 30.0813 3.20986 35.3563C3.37236 35.8375 4.17236 38.4 6.57236 45.4438C7.04736 46.7188 8.00986 49.1188 9.92861 51.3563C11.2099 52.9562 12.4911 53.9188 14.0911 53.9188C16.1724 53.9188 17.6099 52.4813 18.8911 50.8813C18.9849 50.775 19.0849 50.6562 19.1786 50.55C19.0599 50.7375 18.9536 50.9438 18.8911 51.2C18.5724 52.8 20.4911 54.0812 22.0911 54.7188C23.3724 55.3563 24.8099 55.5187 25.9286 55.5187C27.3661 55.5187 28.4911 55.2 29.1286 55.0438C29.6786 54.8563 30.8661 54.3438 32.1349 53.5C32.1911 57.5875 32.2286 62.4125 32.3286 63.5187C32.8099 67.6813 33.9286 70.5563 36.0099 72.1562C37.6099 73.4375 40.4911 73.6 40.6536 73.6C43.5286 73.6 48.0099 71.6813 49.9286 68.6438C50.8911 67.2 51.2099 65.9188 51.5286 64.1562C51.8474 63.2 52.1661 57.6 52.3286 56.4813C52.5474 54.7125 52.7161 52.9688 52.8849 51.275C53.9411 51.55 55.2411 51.8438 56.6536 51.8438C59.2099 51.8438 62.5724 50.0812 63.2099 49.7563C64.4911 48.8 67.0474 46.5625 65.9286 44.6437C65.2911 43.5187 64.3286 43.5187 61.9286 43.8438C61.9286 43.8438 58.0911 44.3188 57.7661 44.1562C57.5349 44.0688 57.1786 43.8438 56.7786 43.55C57.6099 42.2625 58.3474 40.9875 59.2099 39.8438C61.1286 36.1625 62.2536 33.2812 63.0536 31.0438C64.4911 27.0438 65.2911 23.8375 65.7661 21.6C66.8911 16.8 67.2099 14.5625 66.5661 12C65.2911 7.51875 60.6474 3.68125 58.7286 2.5625C57.4474 1.91875 54.2536 0 49.4536 0ZM49.4536 3.2C53.4536 3.2 56.1724 4.8 57.6099 5.4375C59.3724 6.4 63.3724 9.6 63.6911 12.6375C63.8536 14.4 64.0099 16.1625 62.8911 20.8C62.2536 23.0375 61.6099 25.9188 60.1661 29.9188C59.3661 32.1562 58.4099 34.8812 56.4911 38.2438C56.4411 38.325 56.3849 38.4125 56.3349 38.5C56.5224 37.825 56.6536 37.2812 56.6536 37.2812C56.9724 35.6813 56.9724 34.4 56.8099 32.4813C56.6474 31.5188 56.4911 29.1188 56.4911 28.1562C56.4911 27.6812 56.9661 22.7188 57.1286 20.9563C57.2911 18.0813 55.5286 14.5562 55.0536 13.9187C52.6536 10.2375 51.3724 8.1625 48.8099 6.08125C48.1724 5.5375 47.0786 4.63125 45.5911 3.71875C46.7661 3.43125 48.0661 3.2 49.4536 3.2ZM35.3161 3.85625C37.4036 3.90625 39.1724 4.48125 40.4911 4.9625C43.8536 6.08125 45.9286 7.8375 46.8911 8.6375C48.9724 10.4 50.0911 12.1625 52.4911 15.8438C52.6661 16.1938 53.1224 16.9375 53.4849 17.975C50.2099 17.675 48.0349 18.825 46.7286 20C44.8099 21.6 44.9661 24 45.1286 25.7563C45.1286 27.0375 45.4536 28.6438 47.8536 34.0812C48.8099 36.4813 49.7661 39.0375 50.7286 40.8C51.2286 41.7938 51.8411 42.7062 52.4974 43.5187C52.1161 43.7125 51.7286 43.9625 51.3661 44.3188C50.4099 45.4375 50.2474 46.5625 49.9286 48.6437C49.6099 50.2438 49.2911 53.6 49.1286 56.3188C49.1286 57.4375 48.6536 62.8813 48.4911 63.6813C48.0099 65.2812 47.8474 66.0813 47.2099 67.0438C46.0911 68.8 42.5724 70.2438 40.4911 70.0813C39.8536 70.0813 38.8911 70.0813 38.0911 69.4437C36.3286 68.1625 35.6911 65.2812 35.5286 63.0438C35.3661 61.4438 35.5286 49.9188 35.2099 47.3563C35.0474 46.7188 34.8911 45.1188 33.6099 44C33.0724 43.55 31.9599 43.3188 30.9099 43.1625C30.9224 42.625 30.9536 42.0875 31.0536 41.6C31.2099 40.6375 31.5286 40.1562 31.8536 39.3563C32.0099 38.8813 32.3286 38.2438 32.6536 37.4438C34.0911 32.9625 33.7661 27.0375 32.9661 23.3563C32.8099 23.0375 32.1661 20.4812 29.9286 19.0438C27.5286 17.6 24.9661 18.4 23.5286 18.8813C22.9349 19.0438 22.3474 19.3 21.7599 19.6C21.8599 18.9312 21.9474 18.2563 22.0911 17.6C22.7286 14.4 23.3724 11.6812 25.4536 8.9625C27.6911 6.2375 30.2474 4.48125 33.1286 4C33.8911 3.88125 34.6224 3.8375 35.3161 3.85625ZM15.5599 4.1375C15.9349 4.13125 16.2536 4.1375 16.4911 4.1625C18.9911 4.29375 21.3849 4.88125 23.7599 5.88125C23.4661 6.20625 23.1724 6.53125 22.8911 6.88125C20.1724 10.0812 19.5286 13.4375 18.8911 16.8C18.0911 20.8 17.9286 24.9562 18.5661 29.1187L18.2536 32.1562C18.0911 33.7563 17.7661 36.8 19.5286 40C20.1474 41.0625 20.8286 41.9625 21.5786 42.7313C19.9536 44.8813 18.2286 46.9125 16.4911 48.8C15.5286 49.9188 14.7286 50.7188 14.0911 50.7188C13.9286 50.7188 13.2911 50.4 12.3286 49.2812C10.5661 47.3625 9.92861 45.2812 9.60986 44.4813C7.69111 38.7188 6.57236 35.0375 6.40986 34.5563C5.12861 29.4375 4.49111 26.8813 3.84736 23.2C3.04736 18.0812 3.04736 15.5188 3.52861 13.4438C4.00986 11.2 4.80986 9.4375 5.60986 8.1625C7.57236 5.08125 12.9599 4.20625 15.5599 4.1375ZM52.2724 21C52.7849 21 53.3411 21.0625 53.9286 21.1875C53.9099 22.6812 53.2911 27.3688 53.2911 28C53.2911 29.2812 53.6099 31.8375 53.6099 32.8C53.7724 34.5625 53.7724 35.5187 53.6099 36.8C53.6099 36.8 53.3724 37.9438 53.1286 38.7563C52.3849 37.075 51.5599 35.0688 50.5661 32.8C48.1661 27.3625 48.0099 26.2437 48.0099 25.4438C48.0099 24.3188 48.0099 22.8813 48.9661 22.2437C49.8661 21.4438 50.9599 21.0125 52.2724 21ZM27.4349 21.4688C27.7536 21.5063 28.0474 21.6 28.3286 21.7563C29.6099 22.4 29.9286 24 29.9286 24C30.7286 27.5188 31.0474 32.8 29.7661 36.3188C29.6099 36.9562 29.2911 37.4375 29.1286 37.9188C28.8099 38.7188 28.4911 39.5188 28.1661 40.9562C28.0849 41.55 28.0474 42.1375 28.0286 42.725C26.9224 42.4938 25.8786 42.1 25.1286 41.6C23.8474 40.9625 22.8911 39.8375 22.2536 38.5563C21.1286 36.1562 21.2911 33.9188 21.4536 32.6437L21.7661 28.9563C21.5411 27.1562 21.4349 25.35 21.4599 23.5562C22.1974 22.925 23.1599 22.2812 24.4911 21.9188C25.4536 21.6812 26.5036 21.35 27.4349 21.4688ZM51.0286 22.5438C50.6099 22.5625 50.1661 22.6375 49.9286 22.7188C49.2911 22.8813 49.1286 22.8813 48.9661 23.2C48.8099 23.5188 49.2911 24 49.4536 24.3188C49.6099 24.3188 50.0911 24.8 50.7286 24.6438C51.2099 24.4812 51.5286 24.1625 51.6911 24C51.8536 23.8375 52.4911 23.0375 52.0099 22.7188C51.8474 22.5562 51.4474 22.5188 51.0286 22.5438ZM27.0724 23.7063C26.8974 23.7188 26.7286 23.7625 26.5661 23.8438C26.4099 23.8438 26.0911 24 25.9286 24.3188C25.7661 24.6375 25.9286 24.9562 26.0911 25.1187C26.4099 25.6 26.8911 26.0813 27.6911 26.0813C27.8536 26.0813 28.4911 26.0812 28.9661 25.6C28.9661 25.6 29.4536 25.1187 29.4536 24.6438C29.2911 24.3188 28.9724 24.1625 28.4911 24C28.1286 23.8813 27.5911 23.6688 27.0724 23.7063ZM24.1286 44.6437C25.1099 45.1688 26.2911 45.5938 27.5849 45.8875C27.2411 46.575 26.7474 47.1437 26.2536 47.5187C25.1286 48.3188 23.6911 48.8 22.2536 49.1188C21.9286 49.1188 21.7724 49.2812 21.4536 49.2812C20.6786 49.5 19.9286 49.7438 19.4161 50.275C20.9849 48.5312 22.5599 46.6063 24.1286 44.6437ZM54.9786 45.925C55.6786 46.45 56.3661 46.8375 56.9661 47.0438C57.9286 47.3625 58.7286 47.3625 61.6099 47.0438C61.1286 47.5187 59.6911 48.3188 57.6099 48.6437C56.2724 48.775 54.6099 48.4562 53.2599 48.0688C53.3849 47.1625 53.5286 46.6437 53.7661 46.4C53.8536 46.3188 54.3849 46.1562 54.9786 45.925ZM30.8849 46.4062C31.2161 46.4625 31.4786 46.5063 31.5286 46.5563C31.8474 46.8813 32.0099 47.6813 32.0099 48C32.0286 48.275 32.0411 48.9688 32.0536 49.45C30.7349 50.9938 28.6161 51.85 28.1661 52C27.5286 52.3188 25.6099 52.6375 23.6911 52C25.2911 51.5188 26.8911 51.0438 28.1661 50.0812C29.2849 49.2812 30.2474 48.0063 30.8849 46.4062Z" fill="white"/>
</svg>
