<svg width="73" height="73" viewBox="0 0 73 73" fill="none" xmlns="http://www.w3.org/2000/svg">
<path d="M36.1007 0.000191734C30.8272 0.0172817 25.4732 1.1916 20.4122 3.65009C11.7696 7.84931 5.15096 15.3102 2.00887 24.3898C-4.5463 43.2985 5.46835 63.9382 24.377 70.4909C43.2857 77.0436 63.9254 67.0314 70.4806 48.1227C73.6617 39.0358 73.066 29.0505 68.8302 20.403C62.546 7.46845 49.5797 -0.0437533 36.1007 0.000191734ZM35.6661 2.4831C39.5162 2.41718 43.4444 3.01289 47.2945 4.34834C55.7467 7.27802 62.69 13.445 66.5938 21.4919C70.5001 29.5388 71.047 38.8112 68.1173 47.2634C62.0162 64.8635 42.8023 74.1872 25.2022 68.0861C7.60214 61.9851 -1.72159 42.7712 4.37948 25.1711C9.1451 11.4211 21.9137 2.72236 35.6661 2.4831ZM35.7979 6.64814C34.753 6.63349 33.7105 6.675 32.6705 6.77265C31.9796 6.79463 31.44 7.37324 31.4644 8.06172C31.4864 8.75263 32.065 9.29218 32.7535 9.26777C32.8048 9.26533 32.8585 9.26289 32.9098 9.25312C33.8497 9.15547 34.7921 9.10664 35.7369 9.11152C36.4205 9.0163 36.8966 8.38642 36.8013 7.70283C36.7281 7.17304 36.3253 6.74824 35.7979 6.64814ZM27.5655 7.80293C27.4044 7.78584 27.2359 7.80048 27.0699 7.84931C18.2735 10.5251 11.2813 17.2341 8.24667 25.9133C8.00253 26.5578 8.32723 27.2805 8.97176 27.5246C9.6163 27.7687 10.339 27.4465 10.5831 26.8019C10.5929 26.78 10.5977 26.758 10.6051 26.736L10.5611 26.78C13.3297 18.8332 19.7335 12.6833 27.7877 10.2419C28.4493 10.0441 28.8228 9.34834 28.6251 8.68672C28.4762 8.19111 28.0489 7.85664 27.5655 7.80293ZM52.4215 14.6877C49.443 14.6877 47.0333 17.0998 47.0333 20.0783C47.0333 23.0568 49.4454 25.4714 52.4215 25.4714C53.1881 25.4714 53.9156 25.3054 54.5772 25.0148L50.6222 20.9279C50.5391 20.8425 50.4952 20.7277 50.5001 20.6081C50.505 20.4885 50.5587 20.3762 50.6466 20.298L55.6685 15.801C54.7628 15.1125 53.6471 14.6877 52.4215 14.6877ZM56.3277 16.382L51.567 20.6472L55.3731 24.5803C56.8404 23.6159 57.8097 21.9655 57.8097 20.0783C57.8097 18.6428 57.2408 17.3488 56.3277 16.382ZM56.2276 18.9406C56.3961 18.9309 56.5621 19.0187 56.6427 19.1799C56.6646 19.2263 57.1993 20.3273 56.484 21.758C56.4083 21.9118 56.2545 21.9997 56.0933 21.9997C56.0274 21.9997 55.9615 21.9851 55.898 21.9533C55.6807 21.8459 55.5929 21.5847 55.7027 21.3674C56.213 20.3469 55.8736 19.5974 55.859 19.5656C55.7564 19.3483 55.8468 19.0895 56.0616 18.9846C56.1153 18.9577 56.1715 18.9431 56.2276 18.9406ZM45.5098 23.3229C44.7066 23.3571 43.7935 23.5524 42.8121 23.9064C38.9058 25.3127 34.2183 30.4689 34.2183 30.4689L30.4586 34.8293L33.5445 37.8615L47.5557 23.7038C47.0089 23.4157 46.3131 23.2888 45.5098 23.3229ZM48.2515 24.2458L34.1671 38.4768L35.9859 40.2663L46.5621 29.5388C46.5938 29.5095 48.8741 27.2585 48.7618 25.259C48.6593 24.8635 48.4884 24.5192 48.2515 24.2458ZM48.464 28.5964C47.856 29.4875 47.231 30.1076 47.1773 30.1589L36.6085 40.8767L38.0123 42.2585C38.1539 42.1291 38.293 42.007 38.4347 41.8752C46.0518 34.8122 47.6534 31.7995 48.464 28.5964ZM29.8848 35.4934L26.4058 39.5314L32.7852 38.3449L29.8848 35.4934ZM33.4005 38.9479L31.2032 41.2233L35.1046 40.6227L33.4005 38.9479ZM35.8809 41.3894L30.1998 42.2634L19.7848 53.0422L24.1549 57.3391L24.3746 57.3439L23.2808 52.8127C23.2808 52.8127 29.3062 50.0759 37.3653 42.8444L35.8809 41.3894ZM60.9273 42.6516C60.4488 42.7394 60.046 43.1032 59.9337 43.6086C59.7921 44.2434 60.1583 44.8806 60.7784 45.0734L63.1905 45.718C63.8643 45.8669 64.5333 45.4445 64.6822 44.7707C64.8238 44.1359 64.4552 43.4987 63.835 43.3059L61.4254 42.6613C61.2569 42.6247 61.086 42.6223 60.9273 42.6516ZM58.8033 48.5353C58.3175 48.4938 57.8316 48.738 57.5899 49.1945C57.2823 49.7756 57.4776 50.4934 58.0343 50.84L60.1973 52.0852C60.8004 52.4294 61.567 52.2194 61.9112 51.6164C62.2555 51.0134 62.0455 50.2468 61.4425 49.9025L59.2794 48.6769C59.128 48.5964 58.9644 48.55 58.8033 48.5353ZM54.7896 53.5402C54.4698 53.5402 54.1524 53.6623 53.9083 53.9064C53.42 54.3947 53.42 55.1833 53.9083 55.6716L55.6734 57.4392C56.1617 57.9274 56.9503 57.9274 57.4386 57.4392C57.9268 56.9509 57.9268 56.1599 57.4386 55.6716L55.6734 53.9064C55.4293 53.6623 55.1095 53.5402 54.7896 53.5402ZM19.1768 53.6721L15.7808 57.1877L22.8853 57.3171L19.1768 53.6721ZM49.587 57.4221C49.4259 57.4416 49.2696 57.4953 49.1207 57.5808C48.5274 57.9274 48.3248 58.6916 48.669 59.2873L49.9068 61.4406C50.2315 62.051 50.9859 62.2829 51.5938 61.9582C52.2042 61.6335 52.4361 60.8791 52.1114 60.2712C52.0968 60.2468 52.0846 60.2199 52.0699 60.1955L50.8248 58.0324C50.5636 57.5856 50.068 57.361 49.587 57.4221ZM44.045 59.8586C43.8839 59.8342 43.7179 59.8415 43.5518 59.8854C43.5494 59.8879 43.5494 59.8854 43.547 59.8854C42.8805 60.0637 42.4825 60.7497 42.6607 61.4162C42.6632 61.4186 42.6607 61.4186 42.6632 61.4235L43.3077 63.8356C43.5128 64.4948 44.2159 64.8586 44.8726 64.6535C45.4928 64.4606 45.8614 63.8259 45.7198 63.1911L45.0753 60.779C44.9459 60.2785 44.526 59.9294 44.045 59.8586Z" fill="white"/>
</svg>
