<svg width="80" height="80" viewBox="0 0 80 80" fill="none" xmlns="http://www.w3.org/2000/svg">
<path d="M40 26.579C50.915 26.579 60.7302 28.2232 67.7624 30.8326C71.2843 32.1395 74.0297 33.6597 75.8674 35.2718C77.7078 36.8864 78.5 38.4617 78.5 39.9217C78.5 41.3817 77.7078 42.957 75.8674 44.5716C74.0297 46.1837 71.2843 47.7039 67.7624 49.0108C60.7302 51.6202 50.915 53.2644 40 53.2644C29.085 53.2644 19.2698 51.6202 12.2376 49.0108C8.71568 47.7039 5.97025 46.1837 4.13262 44.5716C2.29224 42.957 1.5 41.3817 1.5 39.9217C1.5 38.4617 2.29224 36.8864 4.13262 35.2718C5.97025 33.6597 8.71567 32.1395 12.2376 30.8326C19.2698 28.2232 29.085 26.579 40 26.579Z" stroke="white" stroke-width="3"/>
<path d="M52.5481 33.2945C57.9953 42.1675 61.379 50.9618 62.4885 57.9702C63.0438 61.4784 63.0171 64.4628 62.4528 66.7595C61.8899 69.0507 60.83 70.5314 59.4137 71.3004C57.9974 72.0694 56.104 72.1924 53.7126 71.5052C51.3156 70.8164 48.554 69.346 45.6012 67.1396C39.7023 62.7318 33.296 55.5787 27.8488 46.7057C22.4016 37.8326 19.0179 29.0383 17.9084 22.0299C17.3531 18.5218 17.3798 15.5374 17.9441 13.2407C18.507 10.9494 19.5669 9.46877 20.9832 8.69976C22.3995 7.93074 24.2929 7.80777 26.6843 8.49493C29.0813 9.18372 31.8429 10.6541 34.7957 12.8605C40.6946 17.2683 47.101 24.4214 52.5481 33.2945Z" stroke="white" stroke-width="3"/>
<path d="M27.8488 33.2945C22.4017 42.1675 19.0179 50.9618 17.9085 57.9702C17.3531 61.4784 17.3799 64.4628 17.9441 66.7595C18.507 69.0507 19.567 70.5314 20.9833 71.3004C22.3996 72.0694 24.2929 72.1924 26.6843 71.5052C29.0814 70.8164 31.8429 69.346 34.7957 67.1396C40.6946 62.7318 47.101 55.5787 52.5482 46.7057C57.9953 37.8326 61.3791 29.0383 62.4885 22.0299C63.0439 18.5218 63.0171 15.5374 62.4529 13.2407C61.8899 10.9494 60.83 9.46877 59.4137 8.69976C57.9974 7.93074 56.104 7.80777 53.7126 8.49493C51.3156 9.18372 48.5541 10.6541 45.6013 12.8605C39.7023 17.2683 33.296 24.4214 27.8488 33.2945Z" stroke="white" stroke-width="3"/>
<ellipse cx="40.3846" cy="40.1006" rx="7.69231" ry="7.23434" fill="white"/>
</svg>
